<?xml version="1.0" encoding="UTF-8" standalone="no"?><!DOCTYPE svg PUBLIC "-//W3C//DTD SVG 1.1//EN" "http://www.w3.org/Graphics/SVG/1.1/DTD/svg11.dtd"><svg width="100%" height="100%" viewBox="0 0 632 224" version="1.1" xmlns="http://www.w3.org/2000/svg" xmlns:xlink="http://www.w3.org/1999/xlink" xml:space="preserve" xmlns:serif="http://www.serif.com/" style="fill-rule:evenodd;clip-rule:evenodd;stroke-linejoin:round;stroke-miterlimit:2;"><g><path d="M68.797,69.844c-9.726,11.777 -15.567,26.876 -15.567,43.34c-0,35.514 27.182,64.678 61.88,67.823l-33.756,35.63c-4.068,4.293 -9.722,6.725 -15.637,6.725l-23.768,-0c-18.91,-0 -28.642,-22.628 -15.635,-36.354c7.868,-8.307 7.871,-21.32 0,-29.627l-20.413,-21.557c-7.868,-8.307 -7.868,-21.317 0.003,-29.627l28.069,-29.626c4.068,-4.295 9.723,-6.727 15.637,-6.727l19.187,-0Zm52.535,0.341c23.746,-0 42.999,19.25 42.999,42.999c0,23.746 -19.253,42.998 -42.999,42.998c-23.746,0 -42.998,-19.252 -42.998,-42.998c-0,-23.749 19.252,-42.999 42.998,-42.999Zm7.003,-24.749l36.674,-38.712c4.069,-4.292 9.723,-6.724 15.637,-6.724l23.766,0c18.91,0 28.644,22.625 15.637,36.354c-7.871,8.307 -7.871,21.319 -0.002,29.626l20.413,21.555c7.871,8.31 7.868,21.319 0,29.626l-28.072,29.63c-4.069,4.295 -9.723,6.727 -15.637,6.727l-20.537,-0c8.313,-11.293 13.223,-25.24 13.223,-40.334c0,-35.252 -26.781,-64.246 -61.102,-67.748Z" style="fill:#0b1f50;fill-rule:nonzero;"/><g><path d="M354.426,96.851c-4.621,-0 -9.431,-0.872 -14.431,-2.614c-5,-1.742 -9.507,-4.394 -13.522,-7.954l11.136,-13.408c2.651,2.121 5.511,3.844 8.579,5.17c3.068,1.326 5.965,1.988 8.692,1.988c2.955,0 5.095,-0.454 6.42,-1.363c1.326,-0.909 1.989,-2.197 1.989,-3.863c-0,-1.743 -0.89,-3.068 -2.671,-3.977c-1.78,-0.91 -4.223,-1.97 -7.329,-3.182l-9.204,-3.863c-3.939,-1.591 -7.404,-4.091 -10.397,-7.5c-2.992,-3.409 -4.488,-7.765 -4.488,-13.067c0,-4.242 1.174,-8.087 3.523,-11.534c2.348,-3.446 5.586,-6.211 9.715,-8.295c4.128,-2.083 8.882,-3.124 14.26,-3.124c4.242,-0 8.541,0.814 12.897,2.443c4.356,1.628 8.238,4.109 11.647,7.442l-9.772,12.272c-2.5,-1.742 -4.905,-3.068 -7.215,-3.977c-2.311,-0.909 -4.83,-1.363 -7.557,-1.363c-2.348,-0 -4.223,0.416 -5.624,1.25c-1.402,0.833 -2.102,2.083 -2.102,3.749c-0,1.743 0.984,3.087 2.954,4.034c1.969,0.947 4.621,2.064 7.954,3.352l8.977,3.523c4.621,1.818 8.181,4.356 10.681,7.613c2.5,3.257 3.749,7.462 3.749,12.613c0,4.166 -1.117,8.048 -3.352,11.647c-2.234,3.598 -5.511,6.495 -9.828,8.692c-4.318,2.197 -9.545,3.296 -15.681,3.296Z" style="fill:#0b1f50;fill-rule:nonzero;"/><path d="M405.104,96.851c-3.257,-0 -5.965,-1.156 -8.124,-3.466c-2.159,-2.311 -3.239,-5.095 -3.239,-8.352c0,-3.333 1.08,-6.136 3.239,-8.408c2.159,-2.273 4.867,-3.409 8.124,-3.409c3.333,-0 6.06,1.136 8.182,3.409c2.121,2.272 3.181,5.075 3.181,8.408c0,3.257 -1.06,6.041 -3.181,8.352c-2.122,2.31 -4.849,3.466 -8.182,3.466Z" style="fill:#0b1f50;fill-rule:nonzero;"/><path d="M462.601,96.851c-6.818,-0 -12.803,-1.534 -17.954,-4.602c-5.151,-3.068 -9.166,-7.481 -12.045,-13.238c-2.878,-5.757 -4.317,-12.689 -4.317,-20.794c-0,-8.106 1.439,-14.98 4.317,-20.624c2.879,-5.644 6.894,-9.943 12.045,-12.897c5.151,-2.954 11.136,-4.431 17.954,-4.431c6.817,-0 12.802,1.477 17.953,4.431c5.151,2.954 9.166,7.253 12.045,12.897c2.878,5.644 4.317,12.518 4.317,20.624c0,8.105 -1.439,15.037 -4.317,20.794c-2.879,5.757 -6.894,10.17 -12.045,13.238c-5.151,3.068 -11.136,4.602 -17.953,4.602Zm-0,-16.818c4.469,0 7.973,-1.969 10.51,-5.908c2.538,-3.939 3.807,-9.242 3.807,-15.908c-0,-6.742 -1.269,-11.95 -3.807,-15.624c-2.537,-3.674 -6.041,-5.511 -10.51,-5.511c-4.394,-0 -7.879,1.837 -10.454,5.511c-2.576,3.674 -3.864,8.882 -3.864,15.624c0,6.666 1.288,11.969 3.864,15.908c2.575,3.939 6.06,5.908 10.454,5.908Z" style="fill:#0b1f50;fill-rule:nonzero;"/><path d="M520.097,96.851c-3.258,-0 -5.966,-1.156 -8.125,-3.466c-2.159,-2.311 -3.238,-5.095 -3.238,-8.352c-0,-3.333 1.079,-6.136 3.238,-8.408c2.159,-2.273 4.867,-3.409 8.125,-3.409c3.333,-0 6.06,1.136 8.181,3.409c2.121,2.272 3.182,5.075 3.182,8.408c-0,3.257 -1.061,6.041 -3.182,8.352c-2.121,2.31 -4.848,3.466 -8.181,3.466Z" style="fill:#0b1f50;fill-rule:nonzero;"/><path d="M569.866,96.851c-4.621,-0 -9.431,-0.872 -14.431,-2.614c-4.999,-1.742 -9.507,-4.394 -13.521,-7.954l11.135,-13.408c2.652,2.121 5.511,3.844 8.579,5.17c3.068,1.326 5.966,1.988 8.693,1.988c2.954,0 5.094,-0.454 6.42,-1.363c1.326,-0.909 1.988,-2.197 1.988,-3.863c0,-1.743 -0.89,-3.068 -2.67,-3.977c-1.78,-0.91 -4.223,-1.97 -7.329,-3.182l-9.204,-3.863c-3.939,-1.591 -7.405,-4.091 -10.397,-7.5c-2.992,-3.409 -4.488,-7.765 -4.488,-13.067c-0,-4.242 1.174,-8.087 3.522,-11.534c2.349,-3.446 5.587,-6.211 9.715,-8.295c4.129,-2.083 8.882,-3.124 14.261,-3.124c4.242,-0 8.541,0.814 12.897,2.443c4.356,1.628 8.238,4.109 11.647,7.442l-9.772,12.272c-2.5,-1.742 -4.905,-3.068 -7.216,-3.977c-2.31,-0.909 -4.829,-1.363 -7.556,-1.363c-2.348,-0 -4.223,0.416 -5.625,1.25c-1.401,0.833 -2.102,2.083 -2.102,3.749c0,1.743 0.985,3.087 2.954,4.034c1.97,0.947 4.621,2.064 7.955,3.352l8.976,3.523c4.621,1.818 8.182,4.356 10.681,7.613c2.5,3.257 3.75,7.462 3.75,12.613c0,4.166 -1.117,8.048 -3.352,11.647c-2.235,3.598 -5.511,6.495 -9.829,8.692c-4.318,2.197 -9.545,3.296 -15.681,3.296Z" style="fill:#0b1f50;fill-rule:nonzero;"/><path d="M620.545,96.851c-3.257,-0 -5.966,-1.156 -8.125,-3.466c-2.159,-2.311 -3.238,-5.095 -3.238,-8.352c-0,-3.333 1.079,-6.136 3.238,-8.408c2.159,-2.273 4.868,-3.409 8.125,-3.409c3.333,-0 6.06,1.136 8.181,3.409c2.121,2.272 3.182,5.075 3.182,8.408c-0,3.257 -1.061,6.041 -3.182,8.352c-2.121,2.31 -4.848,3.466 -8.181,3.466Z" style="fill:#0b1f50;fill-rule:nonzero;"/><path d="M345.108,196.503l0,-57.496l-19.544,-0l-0,-16.363l58.633,0l-0,16.363l-19.545,-0l0,57.496l-19.544,0Z" style="fill:#0b1f50;fill-rule:nonzero;"/><path d="M401.468,197.867c-3.56,-0 -6.609,-0.815 -9.147,-2.443c-2.538,-1.629 -4.488,-3.769 -5.852,-6.42c-1.363,-2.652 -2.045,-5.53 -2.045,-8.636c-0,-5.909 2.424,-10.549 7.272,-13.92c4.848,-3.371 12.726,-5.624 23.635,-6.761c-0.455,-3.939 -3.106,-5.908 -7.954,-5.908c-2.045,-0 -4.204,0.397 -6.477,1.193c-2.273,0.795 -4.886,1.988 -7.84,3.579l-6.818,-12.726c4.015,-2.424 8.086,-4.28 12.215,-5.568c4.128,-1.288 8.39,-1.932 12.783,-1.932c7.424,0 13.219,2.102 17.385,6.307c4.167,4.204 6.25,10.965 6.25,20.282l0,31.589l-15.908,0l-1.364,-5.454l-0.454,0c-2.273,2.045 -4.678,3.693 -7.216,4.943c-2.537,1.25 -5.359,1.875 -8.465,1.875Zm6.818,-14.999c1.591,-0 2.916,-0.36 3.977,-1.08c1.06,-0.719 2.083,-1.647 3.068,-2.784l-0,-7.726c-4.621,0.681 -7.822,1.704 -9.602,3.068c-1.78,1.363 -2.67,2.84 -2.67,4.431c-0,2.727 1.742,4.091 5.227,4.091Z" style="fill:#0b1f50;fill-rule:nonzero;"/><path d="M468.282,219.911c-4.318,-0 -8.295,-0.474 -11.931,-1.421c-3.636,-0.946 -6.534,-2.443 -8.693,-4.488c-2.159,-2.045 -3.238,-4.772 -3.238,-8.181c-0,-4.47 2.651,-8.106 7.954,-10.909l-0,-0.454c-1.439,-1.061 -2.67,-2.367 -3.693,-3.92c-1.023,-1.553 -1.534,-3.504 -1.534,-5.852c-0,-1.97 0.587,-3.901 1.761,-5.795c1.174,-1.894 2.708,-3.523 4.602,-4.886l0,-0.455c-2.045,-1.363 -3.844,-3.314 -5.397,-5.852c-1.553,-2.537 -2.33,-5.435 -2.33,-8.692c0,-4.697 1.156,-8.579 3.466,-11.647c2.311,-3.068 5.322,-5.341 9.034,-6.818c3.712,-1.477 7.651,-2.216 11.817,-2.216c3.333,0 6.363,0.455 9.09,1.364l21.135,-0l0,14.09l-8.181,-0c0.227,0.681 0.436,1.553 0.625,2.613c0.189,1.061 0.284,2.159 0.284,3.295c0,4.47 -1.023,8.087 -3.068,10.852c-2.045,2.765 -4.81,4.791 -8.295,6.079c-3.484,1.288 -7.348,1.932 -11.59,1.932c-1.894,-0 -4.015,-0.265 -6.363,-0.796c-0.909,0.834 -1.364,1.932 -1.364,3.296c0,1.212 0.625,2.083 1.875,2.613c1.25,0.53 3.276,0.796 6.079,0.796l8.522,-0c7.121,-0 12.632,1.155 16.534,3.465c3.901,2.311 5.851,6.079 5.851,11.306c0,4.091 -1.344,7.689 -4.033,10.795c-2.69,3.106 -6.496,5.53 -11.42,7.272c-4.924,1.743 -10.757,2.614 -17.499,2.614Zm1.818,-52.951c1.818,-0 3.295,-0.644 4.432,-1.932c1.136,-1.288 1.704,-3.295 1.704,-6.022c0,-2.652 -0.568,-4.602 -1.704,-5.852c-1.137,-1.25 -2.614,-1.875 -4.432,-1.875c-1.818,-0 -3.295,0.625 -4.431,1.875c-1.137,1.25 -1.705,3.2 -1.705,5.852c0,2.727 0.568,4.734 1.705,6.022c1.136,1.288 2.613,1.932 4.431,1.932Zm1.364,40.906c3.181,0 5.833,-0.473 7.954,-1.42c2.121,-0.947 3.181,-2.216 3.181,-3.807c0,-1.515 -0.663,-2.462 -1.988,-2.841c-1.326,-0.378 -3.201,-0.568 -5.625,-0.568l-4.431,0c-2.273,0 -3.996,-0.057 -5.171,-0.17c-1.174,-0.114 -2.177,-0.284 -3.011,-0.511c-1.363,1.363 -2.045,2.727 -2.045,4.09c-0,1.818 1.042,3.144 3.125,3.977c2.083,0.833 4.753,1.25 8.011,1.25Z" style="fill:#0b1f50;fill-rule:nonzero;"/></g></g></svg>